<?xml version="1.0" encoding="UTF-8"?>
<!-- Square Alexa skill icon master. Wraps docs/public/logo.svg (92x100) on a
     116x116 canvas with ~12px/8px padding so the artwork is not edge-to-edge.
     Rendered to alexa-icon-512.png / alexa-icon-108.png by rsvg-convert. -->
<svg width="116" height="116" viewBox="0 0 116 116" xmlns="http://www.w3.org/2000/svg">
    <g transform="translate(12, 8)">
        <g id="g1">
            <linearGradient id="linearGradient1" x1="94.992224" y1="13.477876" x2="92.334813" y2="83.696913" gradientUnits="userSpaceOnUse">
                <stop offset="1e-05" stop-color="#95f0b2" stop-opacity="1"/>
                <stop offset="1" stop-color="#4476af" stop-opacity="1"/>
            </linearGradient>
            <path id="Pfad" fill="url(#linearGradient1)" stroke="none" d="M 91.655296 49.378525 C 91.966003 57.88652 90.735077 66.450859 87.924004 74.614105 C 84.88385 83.484917 79.98381 91.87011 73.217346 99.194832 L 73.063217 99.360703 C 50.458572 78.348846 44.945148 45.812569 57.182571 19.217659 C 60.190514 12.656425 64.282318 6.46328 69.466942 0.885635 C 74.939018 5.972214 79.409279 11.736099 82.860931 17.923103 C 88.321266 27.670296 91.257217 38.478073 91.655296 49.378525 Z"/>
            <linearGradient id="linearGradient2" x1="101.977272" y1="22.158868" x2="88.483497" y2="95.262918" gradientUnits="userSpaceOnUse">
                <stop offset="1e-05" stop-color="#ffffff" stop-opacity="1"/>
                <stop offset="1" stop-color="#000000" stop-opacity="1"/>
            </linearGradient>
            <path id="path1" fill="url(#linearGradient2)" stroke="none" style="mix-blend-mode:overlay" d="M 73.216125 99.19619 C 58.154892 72.241264 62.911057 39.496178 82.862701 17.925133 C 88.320969 27.668144 91.259155 38.476395 91.657341 49.377304 C 92.310501 67.121948 86.217789 85.123299 73.216125 99.19619 Z"/>
            <linearGradient id="linearGradient3" x1="54.254882" y1="11.90278" x2="86.878751" y2="64.850343" gradientUnits="userSpaceOnUse">
                <stop offset="1e-05" stop-color="#ffffff" stop-opacity="1"/>
                <stop offset="1" stop-color="#000000" stop-opacity="1"/>
            </linearGradient>
            <path id="path2" fill="url(#linearGradient3)" stroke="none" style="mix-blend-mode:overlay" d="M 87.924004 74.614105 C 84.88385 83.484917 79.98381 91.87011 73.217346 99.194832 L 73.063217 99.360703 C 50.458572 78.348846 44.945148 45.812569 57.182571 19.217659 C 59.192467 35.97187 66.25618 58.519661 87.924004 74.614105 Z"/>
        </g>
        <g id="g2">
            <linearGradient id="linearGradient4" x1="0.836156" y1="30.92498" x2="70.471094" y2="28.381929" gradientUnits="userSpaceOnUse">
                <stop offset="1e-05" stop-color="#e5aa57" stop-opacity="1"/>
                <stop offset="1" stop-color="#da5965" stop-opacity="1"/>
            </linearGradient>
            <path id="path3" fill="url(#linearGradient4)" stroke="none" d="M 73.054985 99.135208 L 73.063225 99.360703 C 50.615166 100.180481 30.258759 90.285561 16.930504 74.250519 C 11.69894 67.975616 7.546776 60.751076 4.783003 52.864182 C 2.500601 46.394157 1.148674 39.482384 0.885232 32.268745 C 8.353449 31.995995 15.58827 32.911446 22.408924 34.846779 C 33.157917 37.876572 42.878021 43.441422 50.867668 50.868073 C 58.073143 57.558731 63.870636 65.771736 67.740021 75.023666 C 68.035416 75.733658 68.316139 76.44429 68.590004 77.162453 C 71.192131 84.013962 72.750931 91.406113 73.054985 99.135208 Z"/>
            <linearGradient id="linearGradient5" x1="40.507798" y1="22.73382" x2="80.934049" y2="87.900728" gradientUnits="userSpaceOnUse">
                <stop offset="1e-05" stop-color="#ffffff" stop-opacity="1"/>
                <stop offset="1" stop-color="#000000" stop-opacity="1"/>
            </linearGradient>
            <path id="path4" fill="url(#linearGradient5)" stroke="none" style="mix-blend-mode:overlay" d="M 73.054352 99.135971 C 43.344463 90.7258 23.553249 64.208496 22.408207 34.847473 C 33.157204 37.877266 42.877308 43.4422 50.86702 50.868759 C 63.876236 62.954346 72.296913 79.991394 73.054352 99.135971 Z"/>
            <linearGradient id="linearGradient6" x1="18.648929" y1="38.35686" x2="69.102889" y2="74.344166" gradientUnits="userSpaceOnUse">
                <stop offset="1e-05" stop-color="#ffffff" stop-opacity="1"/>
                <stop offset="1" stop-color="#000000" stop-opacity="1"/>
            </linearGradient>
            <path id="path5" fill="url(#linearGradient6)" stroke="none" style="mix-blend-mode:overlay" d="M 73.054985 99.135208 L 73.063217 99.360703 C 50.615166 100.180481 30.258755 90.285561 16.930504 74.250519 C 11.698942 67.975616 7.546778 60.751076 4.783003 52.864182 C 14.108141 65.157089 34.20681 83.34774 67.740021 75.023666 C 68.035416 75.733658 68.316147 76.44429 68.590004 77.162453 C 71.192131 84.013962 72.750931 91.406105 73.054985 99.135208 Z"/>
        </g>
    </g>
</svg>
